<svg width="98" height="124" viewBox="0 0 98 124" fill="none" xmlns="http://www.w3.org/2000/svg">
<circle cx="26.905" cy="56.6846" r="6.0386" transform="rotate(-5.45561 26.905 56.6846)" fill="url(#paint0_linear_1967_6710)" stroke="#8D5A03" style="stroke:#8D5A03;stroke:color(display-p3 0.5510 0.3527 0.0103);stroke-opacity:1;" stroke-width="0.0551471"/>
<circle cx="68.8835" cy="56.7706" r="6.0386" transform="rotate(-5.45561 68.8835 56.7706)" fill="url(#paint1_linear_1967_6710)" stroke="#8D5A03" style="stroke:#8D5A03;stroke:color(display-p3 0.5510 0.3527 0.0103);stroke-opacity:1;" stroke-width="0.0551471"/>
<rect x="35.8799" y="45.5157" width="5.53003" height="8.93382" rx="2.76501" transform="rotate(-4.26273 35.8799 45.5157)" fill="#3B2E1E" stroke="#3B2E1E" style="fill:#3B2E1E;fill:color(display-p3 0.2314 0.1804 0.1176);fill-opacity:1;stroke:#3B2E1E;stroke:color(display-p3 0.2314 0.1804 0.1176);stroke-opacity:1;" stroke-width="0.110294"/>
<path d="M58.7986 50.4484C58.8512 50.7484 59.137 50.9489 59.437 50.8963C59.737 50.8437 59.9375 50.5579 59.8849 50.2579L59.3417 50.3531L58.7986 50.4484ZM53.6174 50.6568L54.1668 50.7045C54.2213 50.0754 54.4148 49.136 54.8007 48.3728C55.193 47.5968 55.6964 47.1559 56.3264 47.1559L56.3265 46.6045L56.3266 46.053C55.0703 46.0529 54.2777 46.9627 53.8164 47.8752C53.3485 48.8005 53.1306 49.8874 53.068 50.6092L53.6174 50.6568ZM56.3265 46.6045L56.3264 47.1559C56.9921 47.156 57.5448 47.5914 57.9923 48.3037C58.4353 49.0087 58.6977 49.8735 58.7986 50.4484L59.3417 50.3531L59.8849 50.2579C59.7666 49.5833 59.4646 48.5738 58.9262 47.7169C58.3925 46.8673 57.5471 46.0531 56.3266 46.053L56.3265 46.6045Z" fill="#3B2E1E" style="fill:#3B2E1E;fill:color(display-p3 0.2314 0.1804 0.1176);fill-opacity:1;"/>
<path d="M52.2763 54.0345C52.4552 54.0321 52.6033 54.0544 52.7209 54.1072C52.837 54.1593 52.9264 54.242 52.987 54.3666C53.0483 54.4926 53.0818 54.6641 53.0808 54.8936C53.0699 57.1623 51.2951 59.0001 48.3553 59.1144C46.8873 59.1714 45.6053 58.6715 44.6603 57.9629C43.7139 57.2532 43.1118 56.3394 42.9932 55.5756C42.9637 55.3857 42.9728 55.2363 43.0136 55.1194C43.054 55.0037 43.1265 54.9154 43.2298 54.8481C43.4406 54.711 43.7804 54.6605 44.2348 54.6557C44.6868 54.6509 45.2387 54.6916 45.8667 54.7262C46.4934 54.7607 47.1934 54.789 47.937 54.7601C49.4239 54.7024 50.7393 54.2783 51.6605 54.1073C51.8918 54.0644 52.0977 54.037 52.2763 54.0345Z" fill="#A93B31" stroke="#A93B31" style="fill:#A93B31;fill:color(display-p3 0.6627 0.2314 0.1922);fill-opacity:1;stroke:#A93B31;stroke:color(display-p3 0.6627 0.2314 0.1922);stroke-opacity:1;" stroke-width="0.110294"/>
<path d="M51.7523 57.22C51.7713 57.8867 50.3874 59.0157 48.315 59.0748C46.2425 59.1338 44.413 58.0177 44.394 57.3511C44.375 56.6845 45.893 56.179 47.9654 56.12C50.0378 56.0609 51.7333 56.5534 51.7523 57.22Z" fill="#EEAC97" style="fill:#EEAC97;fill:color(display-p3 0.9333 0.6745 0.5922);fill-opacity:1;"/>
<g filter="url(#filter0_di_1967_6710)">
<path d="M23.6614 87.76C23.6614 83.4649 30.8199 77.9768 34.3992 75.7695L39.7685 76.0459L54.4434 76.8011L58.7381 77.0221C61.3629 75.5308 67.1852 72.1185 69.4759 70.4005C72.3393 68.253 77.1713 59.126 79.4978 57.3364C81.8243 55.5468 85.2246 55.7257 87.7301 56.4416C90.2356 57.1574 91.8463 61.8104 90.9514 65.7476C90.0566 69.6848 82.7192 77.7381 76.4555 81.3174C71.4445 84.1808 63.6298 85.4932 60.3488 85.7915C61.0647 86.9249 63.1896 89.3032 63.9281 90.9814C65.8966 95.4553 66.2546 103.688 65.8966 104.404C65.7522 104.692 64.5003 105.185 62.3174 105.694V112.994C62.6157 112.994 63.4628 113.137 64.4649 113.709C65.7177 114.425 67.5073 116.573 67.3284 119.436C67.1852 121.727 65.9563 122.538 65.3598 122.658H48.5373V110.149C48.0741 110.149 47.597 110.144 47.1056 110.13C46.7402 110.12 46.3823 110.107 46.0318 110.091V122.658H27.4197C27.1214 121.584 26.668 118.864 27.2407 116.573C27.8134 114.282 30.2234 113.232 31.3568 112.994V108.52C30.2831 108.699 27.6702 108.985 25.809 108.699C23.4825 108.341 20.6191 105.331 20.798 101.54C20.9412 98.5074 23.7211 91.5951 25.0931 88.518L23.6614 87.76Z" fill="url(#paint2_linear_1967_6710)"/>
<path d="M29.7462 90.9814L33.5044 85.7915M29.7462 90.9814C28.8514 94.6799 27.3839 102.399 28.6724 103.688C29.1715 104.187 30.0485 104.772 31.3568 105.331M29.7462 90.9814L25.0931 88.518M76.4555 81.3174C71.4445 84.1808 63.6298 85.4932 60.3488 85.7915C61.0647 86.9249 63.1896 89.3032 63.9281 90.9814C65.8966 95.4553 66.2546 103.688 65.8966 104.404C65.7522 104.692 64.5003 105.185 62.3174 105.694M76.4555 81.3174C82.7191 77.7381 90.0566 69.6848 90.9514 65.7476C91.8462 61.8104 90.2356 57.1574 87.7301 56.4416C85.2246 55.7257 81.8243 55.5468 79.4978 57.3364C77.1713 59.126 72.3393 68.253 69.4759 70.4005M76.4555 81.3174L69.4759 70.4005M69.4759 70.4005C67.1852 72.1185 61.3629 75.5308 58.7381 77.0221L54.4434 76.8011M31.3568 105.331C34.2709 106.576 39.3244 107.693 47.1056 107.446C53.8304 107.232 59.0909 106.446 62.3174 105.694M31.3568 105.331C32.1632 106.76 36.2172 109.637 46.0318 110.091M31.3568 105.331V108.52M62.3174 105.694V112.994M62.3174 105.694C61.6916 107.218 58.0605 110.13 48.5373 110.149M62.3174 112.994C62.6157 112.994 63.4628 113.137 64.4649 113.709C65.7177 114.425 67.5073 116.573 67.3284 119.436C67.1852 121.727 65.9563 122.538 65.3598 122.658H48.5373V110.149M62.3174 112.994C60.5874 112.755 56.8411 112.6 55.6958 113.888M48.5373 110.149C48.0741 110.149 47.597 110.144 47.1056 110.13C46.7402 110.12 46.3823 110.107 46.0318 110.091M31.3568 112.994C30.2234 113.232 27.8134 114.282 27.2407 116.573C26.668 118.864 27.1214 121.584 27.4197 122.658H46.0318V110.091M31.3568 112.994C33.0272 112.695 36.7257 112.457 38.1574 113.888M31.3568 112.994V108.52M25.0931 88.518L23.6614 87.76C23.6614 83.4649 30.8199 77.9768 34.3992 75.7695L39.7685 76.0459M25.0931 88.518C23.7211 91.5951 20.9412 98.5074 20.798 101.54C20.6191 105.331 23.4825 108.341 25.809 108.699C27.6702 108.985 30.2831 108.699 31.3568 108.52M39.7685 76.0459C39.9474 77.6837 41.5581 80.9951 46.5691 81.1383C51.58 81.2814 53.9065 78.3065 54.4434 76.8011M39.7685 76.0459L54.4434 76.8011" stroke="#444444" stroke-opacity="0.2" style="stroke:#444444;stroke:color(display-p3 0.2667 0.2667 0.2667);stroke-opacity:0.2;" stroke-width="0.551471" stroke-linecap="round"/>
<g filter="url(#filter1_di_1967_6710)">
<path d="M23.6572 87.7346C23.6572 83.4394 30.8157 77.9512 34.395 75.744L39.7643 76.0204C39.9432 77.6582 41.5539 80.9696 46.5649 81.1128C51.5758 81.2559 53.9023 78.281 54.4392 76.7756L58.7339 76.9966C61.3587 75.5053 67.181 72.093 69.4717 70.375L76.4512 81.2919C71.4403 84.1553 63.6256 85.4677 60.3446 85.766C61.0604 86.8994 63.1854 89.2777 63.9239 90.9559C65.8924 95.4298 66.2504 103.662 65.8924 104.378C65.748 104.667 64.4961 105.16 62.3132 105.669C61.6874 107.192 58.0563 110.105 48.5331 110.123C48.0699 110.124 47.5927 110.118 47.1014 110.105C46.736 110.095 46.3781 110.082 46.0276 110.065C36.213 109.611 32.159 106.735 31.3526 105.305C30.0443 104.746 29.1673 104.161 28.6682 103.662C27.3797 102.374 28.8471 94.6544 29.742 90.9559L25.0889 88.4925L23.6572 87.7346Z" fill="#D411A0" style="fill:#D411A0;fill:color(display-p3 0.8329 0.0684 0.6290);fill-opacity:1;"/>
<path d="M29.742 90.9559L33.5002 85.766M29.742 90.9559C28.8471 94.6544 27.3797 102.374 28.6682 103.662C29.1673 104.161 30.0443 104.746 31.3526 105.305M29.742 90.9559L25.0889 88.4925L23.6572 87.7345C23.6572 83.4394 30.8157 77.9512 34.395 75.744L39.7643 76.0204C39.9432 77.6582 41.5539 80.9696 46.5649 81.1128C51.5758 81.2559 53.9023 78.281 54.4392 76.7756L58.7339 76.9966C61.3587 75.5053 67.181 72.093 69.4717 70.375L76.4512 81.2919C71.4403 84.1553 63.6256 85.4677 60.3446 85.766C61.0604 86.8994 63.1854 89.2777 63.9239 90.9559C65.8924 95.4298 66.2504 103.662 65.8924 104.378C65.748 104.667 64.4961 105.16 62.3132 105.669M31.3526 105.305C34.2667 106.551 39.3202 107.667 47.1014 107.42C53.8262 107.207 59.0867 106.42 62.3132 105.669M31.3526 105.305C32.159 106.735 36.213 109.611 46.0276 110.065C46.3781 110.082 46.736 110.095 47.1014 110.105C47.5927 110.118 48.0699 110.124 48.5331 110.123C58.0563 110.105 61.6874 107.192 62.3132 105.669" stroke="white" stroke-opacity="0.2" style="stroke:white;stroke-opacity:0.2;" stroke-width="0.551471" stroke-linecap="round"/>
</g>
<g filter="url(#filter2_di_1967_6710)">
<path d="M47.1271 107.451C39.346 107.698 34.2925 106.581 31.3784 105.336C32.1848 106.765 36.2388 109.642 46.0534 110.096C46.4039 110.112 46.7618 110.125 47.1271 110.135C47.6185 110.149 48.0957 110.155 48.5588 110.154C58.0821 110.135 61.7132 107.223 62.339 105.699C59.1125 106.451 53.852 107.238 47.1271 107.451Z" fill="#FF6C6C" fill-opacity="0.3" style="fill:#FF6C6C;fill:color(display-p3 1.0000 0.4246 0.4246);fill-opacity:0.3;" shape-rendering="crispEdges"/>
</g>
</g>
<g filter="url(#filter3_di_1967_6710)">
<path d="M91.2875 34.4543C94.9384 53.6327 78.6917 75.9237 52.4433 78.1136C26.1949 80.3036 10.4059 70.7914 6.75496 51.613C3.10404 32.4345 17.7997 12.7404 39.2221 8.66235C56.8287 5.31065 66.6334 11.6964 76.7703 23.0712C86.9072 34.4461 90.3128 29.3345 91.2875 34.4543Z" fill="url(#paint3_linear_1967_6710)"/>
<path d="M39.2739 8.93283C48.033 7.26544 54.8276 8.02374 60.6864 10.5965C66.552 13.1724 71.5056 17.5786 76.5642 23.2549C81.6615 28.9747 85.0862 30.5683 87.3738 31.3687C87.6568 31.4678 87.9218 31.5542 88.1669 31.6343C88.413 31.7146 88.6378 31.788 88.8465 31.8618C89.2653 32.0099 89.601 32.1544 89.8786 32.3433C90.4103 32.7054 90.7808 33.2658 91.0169 34.5055C94.6325 53.4987 78.5311 75.66 52.42 77.8384C39.3292 78.9306 28.8828 77.1014 21.2642 72.6385C13.6551 68.1811 8.83755 61.0803 7.02545 51.5613C3.40772 32.5564 17.976 12.9872 39.2739 8.93283Z" stroke="#444444" stroke-opacity="0.2" style="stroke:#444444;stroke:color(display-p3 0.2667 0.2667 0.2667);stroke-opacity:0.2;" stroke-width="0.551471"/>
</g>
<g filter="url(#filter4_i_1967_6710)">
<path d="M80.0079 47.6564C79.963 65.4652 65.3345 72.3593 47.5225 72.3144C29.7105 72.2695 15.3081 63.3198 15.3435 49.2487C15.379 35.1777 30.0086 22.0524 47.8206 22.0973C65.6326 22.1421 80.0433 33.5853 80.0079 47.6564Z" fill="url(#paint4_linear_1967_6710)"/>
</g>
<circle cx="26.905" cy="56.6885" r="6.0386" transform="rotate(-5.45561 26.905 56.6885)" fill="url(#paint5_linear_1967_6710)" stroke="#8D5A03" style="stroke:#8D5A03;stroke:color(display-p3 0.5510 0.3527 0.0103);stroke-opacity:1;" stroke-width="0.0551471"/>
<circle cx="68.882" cy="56.7745" r="6.0386" transform="rotate(-5.45561 68.882 56.7745)" fill="url(#paint6_linear_1967_6710)" stroke="#8D5A03" style="stroke:#8D5A03;stroke:color(display-p3 0.5510 0.3527 0.0103);stroke-opacity:1;" stroke-width="0.0551471"/>
<rect x="35.8804" y="45.5196" width="5.53003" height="8.93382" rx="2.76501" transform="rotate(-4.26273 35.8804 45.5196)" fill="#3B2E1E" stroke="#3B2E1E" style="fill:#3B2E1E;fill:color(display-p3 0.2314 0.1804 0.1176);fill-opacity:1;stroke:#3B2E1E;stroke:color(display-p3 0.2314 0.1804 0.1176);stroke-opacity:1;" stroke-width="0.110294"/>
<path d="M58.7981 50.4523C58.8507 50.7523 59.1365 50.9528 59.4365 50.9002C59.7365 50.8476 59.9371 50.5618 59.8844 50.2618L59.3413 50.357L58.7981 50.4523ZM53.6169 50.6607L54.1663 50.7084C54.2209 50.0793 54.4143 49.1399 54.8002 48.3767C55.1925 47.6007 55.6959 47.1598 56.3259 47.1598L56.326 46.6084L56.3261 46.0569C55.0698 46.0568 54.2772 46.9666 53.8159 47.8791C53.348 48.8044 53.1301 49.8913 53.0675 50.6131L53.6169 50.6607ZM56.326 46.6084L56.3259 47.1598C56.9917 47.1599 57.5443 47.5953 57.9918 48.3076C58.4348 49.0126 58.6972 49.8774 58.7981 50.4523L59.3413 50.357L59.8844 50.2618C59.7661 49.5872 59.4641 48.5777 58.9258 47.7209C58.392 46.8712 57.5466 46.057 56.3261 46.0569L56.326 46.6084Z" fill="#3B2E1E" style="fill:#3B2E1E;fill:color(display-p3 0.2314 0.1804 0.1176);fill-opacity:1;"/>
<path d="M52.2763 54.0463C52.4552 54.0438 52.6033 54.0661 52.7209 54.1189C52.837 54.171 52.9264 54.2538 52.987 54.3783C53.0483 54.5043 53.0818 54.6758 53.0808 54.9053C53.0699 57.174 51.2951 59.0119 48.3553 59.1261C46.8873 59.1831 45.6053 58.6832 44.6603 57.9746C43.7139 57.265 43.1118 56.3511 42.9932 55.5874C42.9637 55.3974 42.9728 55.248 43.0136 55.1311C43.054 55.0154 43.1265 54.9271 43.2298 54.8598C43.4406 54.7227 43.7804 54.6722 44.2348 54.6674C44.6868 54.6626 45.2387 54.7033 45.8667 54.7379C46.4934 54.7724 47.1934 54.8007 47.937 54.7718C49.4239 54.7141 50.7393 54.2901 51.6605 54.119C51.8918 54.0761 52.0977 54.0487 52.2763 54.0463Z" fill="#A93B31" stroke="#A93B31" style="fill:#A93B31;fill:color(display-p3 0.6627 0.2314 0.1922);fill-opacity:1;stroke:#A93B31;stroke:color(display-p3 0.6627 0.2314 0.1922);stroke-opacity:1;" stroke-width="0.110294"/>
<path d="M51.7523 57.22C51.7713 57.8867 50.3874 59.0157 48.315 59.0748C46.2425 59.1338 44.413 58.0177 44.394 57.3511C44.375 56.6845 45.893 56.179 47.9654 56.12C50.0378 56.0609 51.7333 56.5534 51.7523 57.22Z" fill="#EEAC97" style="fill:#EEAC97;fill:color(display-p3 0.9333 0.6745 0.5922);fill-opacity:1;"/>
<g filter="url(#filter5_dd_1967_6710)">
<mask id="path-21-outside-1_1967_6710" maskUnits="userSpaceOnUse" x="62.2031" y="14.5815" width="21.091" height="20.5488" fill="black">
<rect fill="white" x="62.2031" y="14.5815" width="21.091" height="20.5488"/>
<path d="M66.1601 27.9481L63.4106 26.0971L70.2175 15.9863L72.6324 17.6121L72.1359 18.7578C74.0071 19.0873 76.0909 19.7291 77.8803 20.9337C80.5862 22.7554 81.5686 24.939 79.7175 27.6885C77.7783 30.569 74.988 30.1916 71.7729 28.0271C70.3909 27.0966 69.1555 26.0112 68.1189 25.0386L66.1601 27.9481ZM75.8432 22.8604C74.6794 22.0769 72.9658 21.3249 71.0474 20.6888L69.5293 22.9437C70.7068 23.9267 72.1414 25.0617 73.3925 25.9039C75.0365 27.0107 76.1355 27.074 76.9386 25.8811C77.6927 24.7609 77.429 23.928 75.8432 22.8604Z"/>
</mask>
<path d="M66.1601 27.9481L63.4106 26.0971L70.2175 15.9863L72.6324 17.6121L72.1359 18.7578C74.0071 19.0873 76.0909 19.7291 77.8803 20.9337C80.5862 22.7554 81.5686 24.939 79.7175 27.6885C77.7783 30.569 74.988 30.1916 71.7729 28.0271C70.3909 27.0966 69.1555 26.0112 68.1189 25.0386L66.1601 27.9481ZM75.8432 22.8604C74.6794 22.0769 72.9658 21.3249 71.0474 20.6888L69.5293 22.9437C70.7068 23.9267 72.1414 25.0617 73.3925 25.9039C75.0365 27.0107 76.1355 27.074 76.9386 25.8811C77.6927 24.7609 77.429 23.928 75.8432 22.8604Z" fill="#F7EFFF" style="fill:#F7EFFF;fill:color(display-p3 0.9686 0.9373 1.0000);fill-opacity:1;"/>
<path d="M66.1601 27.9481L65.9754 28.2226L66.2498 28.4074L66.4346 28.1329L66.1601 27.9481ZM63.4106 26.0971L63.1361 25.9123L62.9513 26.1868L63.2258 26.3715L63.4106 26.0971ZM70.2175 15.9863L70.4022 15.7118L70.1278 15.527L69.943 15.8015L70.2175 15.9863ZM72.6324 17.6121L72.936 17.7437L73.0454 17.4913L72.8172 17.3376L72.6324 17.6121ZM72.1359 18.7578L71.8323 18.6262L71.6656 19.0109L72.0786 19.0837L72.1359 18.7578ZM68.1189 25.0386L68.3454 24.7973L68.0617 24.5311L67.8445 24.8538L68.1189 25.0386ZM71.0474 20.6888L71.1515 20.3747L70.9131 20.2957L70.7729 20.504L71.0474 20.6888ZM69.5293 22.9437L69.2548 22.7589L69.0882 23.0064L69.3172 23.1977L69.5293 22.9437ZM66.1601 27.9481L66.3449 27.6737L63.5954 25.8226L63.4106 26.0971L63.2258 26.3715L65.9754 28.2226L66.1601 27.9481ZM63.4106 26.0971L63.6851 26.2818L70.4919 16.1711L70.2175 15.9863L69.943 15.8015L63.1361 25.9123L63.4106 26.0971ZM70.2175 15.9863L70.0327 16.2608L72.4476 17.8866L72.6324 17.6121L72.8172 17.3376L70.4022 15.7118L70.2175 15.9863ZM72.6324 17.6121L72.3288 17.4806L71.8323 18.6262L72.1359 18.7578L72.4395 18.8894L72.936 17.7437L72.6324 17.6121ZM72.1359 18.7578L72.0786 19.0837C73.9225 19.4084 75.9574 20.0381 77.6955 21.2082L77.8803 20.9337L78.0651 20.6593C76.2244 19.42 74.0918 18.7662 72.1933 18.4319L72.1359 18.7578ZM77.8803 20.9337L77.6955 21.2082C79.0209 22.1005 79.8722 23.0484 80.1922 24.0627C80.5064 25.0589 80.3288 26.1881 79.443 27.5037L79.7175 27.6885L79.992 27.8733C80.9573 26.4395 81.214 25.102 80.8233 23.8636C80.4384 22.6433 79.4456 21.5887 78.0651 20.6593L77.8803 20.9337ZM79.7175 27.6885L79.443 27.5037C78.5253 28.8669 77.4396 29.4232 76.2248 29.4188C74.9801 29.4143 73.5451 28.8213 71.9577 27.7526L71.7729 28.0271L71.5881 28.3015C73.2158 29.3973 74.7835 30.0753 76.2225 30.0805C77.6914 30.0859 78.9705 29.3906 79.992 27.8733L79.7175 27.6885ZM71.7729 28.0271L71.9577 27.7526C70.5973 26.8367 69.3768 25.7652 68.3454 24.7973L68.1189 25.0386L67.8925 25.2799C68.9341 26.2573 70.1845 27.3566 71.5881 28.3015L71.7729 28.0271ZM68.1189 25.0386L67.8445 24.8538L65.8857 27.7634L66.1601 27.9481L66.4346 28.1329L68.3934 25.2234L68.1189 25.0386ZM75.8432 22.8604L76.028 22.5859C74.8282 21.7782 73.0822 21.0149 71.1515 20.3747L71.0474 20.6888L70.9432 21.0028C72.8494 21.6349 74.5306 22.3756 75.6585 23.1349L75.8432 22.8604ZM71.0474 20.6888L70.7729 20.504L69.2548 22.7589L69.5293 22.9437L69.8038 23.1285L71.3218 20.8735L71.0474 20.6888ZM69.5293 22.9437L69.3172 23.1977C70.4981 24.1835 71.9428 25.3268 73.2078 26.1784L73.3925 25.9039L73.5773 25.6295C72.3401 24.7965 70.9155 23.6699 69.7413 22.6897L69.5293 22.9437ZM73.3925 25.9039L73.2078 26.1784C74.0438 26.7413 74.7972 27.0798 75.478 27.0858C76.1955 27.092 76.7654 26.7309 77.213 26.0659L76.9386 25.8811L76.6641 25.6963C76.3087 26.2242 75.9275 26.4279 75.4837 26.424C75.0033 26.4198 74.3852 26.1733 73.5773 25.6295L73.3925 25.9039ZM76.9386 25.8811L77.213 26.0659C77.6203 25.4609 77.799 24.8609 77.5804 24.241C77.3731 23.6531 76.8323 23.1274 76.028 22.5859L75.8432 22.8604L75.6585 23.1349C76.4399 23.661 76.8238 24.0855 76.9563 24.4611C77.0774 24.8046 77.0109 25.1811 76.6641 25.6963L76.9386 25.8811Z" fill="#CCCCCC" fill-opacity="0.2" style="fill:#CCCCCC;fill:color(display-p3 0.8000 0.8000 0.8000);fill-opacity:0.2;" mask="url(#path-21-outside-1_1967_6710)"/>
</g>
<rect width="5.75818" height="1.01327" rx="0.506635" transform="matrix(0.993576 -0.113163 -0.113144 -0.993579 34.6465 40.2695)" fill="black" style="fill:black;fill-opacity:1;"/>
<rect width="5.75818" height="1.01327" rx="0.506635" transform="matrix(-0.993068 -0.117541 0.117522 -0.99307 59.7729 40.2891)" fill="black" style="fill:black;fill-opacity:1;"/>
<path d="M48.011 48.2933C48.804 48.2741 49.5266 48.4948 50.0538 48.8651C50.581 49.2354 50.9115 49.7545 50.9255 50.3337C50.9394 50.9127 50.6343 51.4465 50.1259 51.8418C49.6172 52.2371 48.9062 52.4926 48.1132 52.5118C47.3202 52.531 46.5976 52.3102 46.0704 51.94C45.5435 51.5698 45.2129 51.0513 45.1987 50.4723C45.1847 49.8932 45.4898 49.3586 45.9984 48.9633C46.507 48.5679 47.2181 48.3125 48.011 48.2933Z" fill="url(#paint7_linear_1967_6710)" stroke="#8D5A03" style="stroke:#8D5A03;stroke:color(display-p3 0.5510 0.3527 0.0103);stroke-opacity:1;" stroke-width="0.0551471"/>
<defs>
<filter id="filter0_di_1967_6710" x="19.6318" y="55.2112" width="71.8452" height="68.6048" filterUnits="userSpaceOnUse" color-interpolation-filters="sRGB">
<feFlood flood-opacity="0" result="BackgroundImageFix"/>
<feColorMatrix in="SourceAlpha" type="matrix" values="0 0 0 0 0 0 0 0 0 0 0 0 0 0 0 0 0 0 127 0" result="hardAlpha"/>
<feOffset dx="-0.441177" dy="0.441177"/>
<feGaussianBlur stdDeviation="0.220588"/>
<feComposite in2="hardAlpha" operator="out"/>
<feColorMatrix type="matrix" values="0 0 0 0 0 0 0 0 0 0 0 0 0 0 0 0 0 0 0.2 0"/>
<feBlend mode="normal" in2="BackgroundImageFix" result="effect1_dropShadow_1967_6710"/>
<feBlend mode="normal" in="SourceGraphic" in2="effect1_dropShadow_1967_6710" result="shape"/>
<feColorMatrix in="SourceAlpha" type="matrix" values="0 0 0 0 0 0 0 0 0 0 0 0 0 0 0 0 0 0 127 0" result="hardAlpha"/>
<feOffset dy="-0.441177"/>
<feGaussianBlur stdDeviation="0.220588"/>
<feComposite in2="hardAlpha" operator="arithmetic" k2="-1" k3="1"/>
<feColorMatrix type="matrix" values="0 0 0 0 0 0 0 0 0 0 0 0 0 0 0 0 0 0 0.25 0"/>
<feBlend mode="normal" in2="shape" result="effect2_innerShadow_1967_6710"/>
</filter>
<filter id="filter1_di_1967_6710" x="22.499" y="69.9766" width="54.3408" height="41.3042" filterUnits="userSpaceOnUse" color-interpolation-filters="sRGB">
<feFlood flood-opacity="0" result="BackgroundImageFix"/>
<feColorMatrix in="SourceAlpha" type="matrix" values="0 0 0 0 0 0 0 0 0 0 0 0 0 0 0 0 0 0 127 0" result="hardAlpha"/>
<feOffset dx="-0.441177" dy="0.441177"/>
<feGaussianBlur stdDeviation="0.220588"/>
<feComposite in2="hardAlpha" operator="out"/>
<feColorMatrix type="matrix" values="0 0 0 0 0 0 0 0 0 0 0 0 0 0 0 0 0 0 0.2 0"/>
<feBlend mode="normal" in2="BackgroundImageFix" result="effect1_dropShadow_1967_6710"/>
<feBlend mode="normal" in="SourceGraphic" in2="effect1_dropShadow_1967_6710" result="shape"/>
<feColorMatrix in="SourceAlpha" type="matrix" values="0 0 0 0 0 0 0 0 0 0 0 0 0 0 0 0 0 0 127 0" result="hardAlpha"/>
<feOffset dy="0.441177"/>
<feGaussianBlur stdDeviation="0.220588"/>
<feComposite in2="hardAlpha" operator="arithmetic" k2="-1" k3="1"/>
<feColorMatrix type="matrix" values="0 0 0 0 0 0 0 0 0 0 0 0 0 0 0 0 0 0 0.25 0"/>
<feBlend mode="normal" in2="shape" result="effect2_innerShadow_1967_6710"/>
</filter>
<filter id="filter2_di_1967_6710" x="30.4961" y="105.336" width="31.8428" height="5.69876" filterUnits="userSpaceOnUse" color-interpolation-filters="sRGB">
<feFlood flood-opacity="0" result="BackgroundImageFix"/>
<feColorMatrix in="SourceAlpha" type="matrix" values="0 0 0 0 0 0 0 0 0 0 0 0 0 0 0 0 0 0 127 0" result="hardAlpha"/>
<feOffset dx="-0.441177" dy="0.441177"/>
<feGaussianBlur stdDeviation="0.220588"/>
<feComposite in2="hardAlpha" operator="out"/>
<feColorMatrix type="matrix" values="0 0 0 0 0 0 0 0 0 0 0 0 0 0 0 0 0 0 0.1 0"/>
<feBlend mode="normal" in2="BackgroundImageFix" result="effect1_dropShadow_1967_6710"/>
<feBlend mode="normal" in="SourceGraphic" in2="effect1_dropShadow_1967_6710" result="shape"/>
<feColorMatrix in="SourceAlpha" type="matrix" values="0 0 0 0 0 0 0 0 0 0 0 0 0 0 0 0 0 0 127 0" result="hardAlpha"/>
<feOffset dy="0.441177"/>
<feGaussianBlur stdDeviation="0.220588"/>
<feComposite in2="hardAlpha" operator="arithmetic" k2="-1" k3="1"/>
<feColorMatrix type="matrix" values="0 0 0 0 0 0 0 0 0 0 0 0 0 0 0 0 0 0 0.25 0"/>
<feBlend mode="normal" in2="shape" result="effect2_innerShadow_1967_6710"/>
</filter>
<filter id="filter3_di_1967_6710" x="5.31589" y="7.32835" width="86.482" height="71.9759" filterUnits="userSpaceOnUse" color-interpolation-filters="sRGB">
<feFlood flood-opacity="0" result="BackgroundImageFix"/>
<feColorMatrix in="SourceAlpha" type="matrix" values="0 0 0 0 0 0 0 0 0 0 0 0 0 0 0 0 0 0 127 0" result="hardAlpha"/>
<feOffset dx="-0.441177" dy="0.441177"/>
<feGaussianBlur stdDeviation="0.220588"/>
<feComposite in2="hardAlpha" operator="out"/>
<feColorMatrix type="matrix" values="0 0 0 0 0 0 0 0 0 0 0 0 0 0 0 0 0 0 0.2 0"/>
<feBlend mode="normal" in2="BackgroundImageFix" result="effect1_dropShadow_1967_6710"/>
<feBlend mode="normal" in="SourceGraphic" in2="effect1_dropShadow_1967_6710" result="shape"/>
<feColorMatrix in="SourceAlpha" type="matrix" values="0 0 0 0 0 0 0 0 0 0 0 0 0 0 0 0 0 0 127 0" result="hardAlpha"/>
<feOffset dy="-0.441177"/>
<feGaussianBlur stdDeviation="0.220588"/>
<feComposite in2="hardAlpha" operator="arithmetic" k2="-1" k3="1"/>
<feColorMatrix type="matrix" values="0 0 0 0 0 0 0 0 0 0 0 0 0 0 0 0 0 0 0.25 0"/>
<feBlend mode="normal" in2="shape" result="effect2_innerShadow_1967_6710"/>
</filter>
<filter id="filter4_i_1967_6710" x="15.3433" y="22.0977" width="65.1057" height="50.6599" filterUnits="userSpaceOnUse" color-interpolation-filters="sRGB">
<feFlood flood-opacity="0" result="BackgroundImageFix"/>
<feBlend mode="normal" in="SourceGraphic" in2="BackgroundImageFix" result="shape"/>
<feColorMatrix in="SourceAlpha" type="matrix" values="0 0 0 0 0 0 0 0 0 0 0 0 0 0 0 0 0 0 127 0" result="hardAlpha"/>
<feOffset dx="1.10294" dy="1.10294"/>
<feGaussianBlur stdDeviation="0.220588"/>
<feComposite in2="hardAlpha" operator="arithmetic" k2="-1" k3="1"/>
<feColorMatrix type="matrix" values="0 0 0 0 0 0 0 0 0 0 0 0 0 0 0 0 0 0 0.3 0"/>
<feBlend mode="normal" in2="shape" result="effect1_innerShadow_1967_6710"/>
</filter>
<filter id="filter5_dd_1967_6710" x="62.51" y="15.5273" width="19.2606" height="15.437" filterUnits="userSpaceOnUse" color-interpolation-filters="sRGB">
<feFlood flood-opacity="0" result="BackgroundImageFix"/>
<feColorMatrix in="SourceAlpha" type="matrix" values="0 0 0 0 0 0 0 0 0 0 0 0 0 0 0 0 0 0 127 0" result="hardAlpha"/>
<feOffset dx="0.551471" dy="0.551471"/>
<feGaussianBlur stdDeviation="0.110294"/>
<feComposite in2="hardAlpha" operator="out"/>
<feColorMatrix type="matrix" values="0 0 0 0 0.506275 0 0 0 0 0.278431 0 0 0 0 0.929412 0 0 0 0.2 0"/>
<feBlend mode="normal" in2="BackgroundImageFix" result="effect1_dropShadow_1967_6710"/>
<feColorMatrix in="SourceAlpha" type="matrix" values="0 0 0 0 0 0 0 0 0 0 0 0 0 0 0 0 0 0 127 0" result="hardAlpha"/>
<feOffset dy="0.441177"/>
<feGaussianBlur stdDeviation="0.220588"/>
<feComposite in2="hardAlpha" operator="out"/>
<feColorMatrix type="matrix" values="0 0 0 0 0 0 0 0 0 0 0 0 0 0 0 0 0 0 0.25 0"/>
<feBlend mode="normal" in2="effect1_dropShadow_1967_6710" result="effect2_dropShadow_1967_6710"/>
<feBlend mode="normal" in="SourceGraphic" in2="effect2_dropShadow_1967_6710" result="shape"/>
</filter>
<linearGradient id="paint0_linear_1967_6710" x1="26.905" y1="50.6184" x2="26.905" y2="62.7508" gradientUnits="userSpaceOnUse">
<stop stop-color="#FFD6D6" style="stop-color:#FFD6D6;stop-color:color(display-p3 1.0000 0.8401 0.8401);stop-opacity:1;"/>
<stop offset="1" stop-color="#F3C8B4" style="stop-color:#F3C8B4;stop-color:color(display-p3 0.9516 0.7852 0.7076);stop-opacity:1;"/>
</linearGradient>
<linearGradient id="paint1_linear_1967_6710" x1="68.8835" y1="50.7044" x2="68.8835" y2="62.8367" gradientUnits="userSpaceOnUse">
<stop stop-color="#FFD6D6" style="stop-color:#FFD6D6;stop-color:color(display-p3 1.0000 0.8401 0.8401);stop-opacity:1;"/>
<stop offset="1" stop-color="#F3C8B4" style="stop-color:#F3C8B4;stop-color:color(display-p3 0.9516 0.7852 0.7076);stop-opacity:1;"/>
</linearGradient>
<linearGradient id="paint2_linear_1967_6710" x1="36.4184" y1="24.8966" x2="90.6189" y2="97.6599" gradientUnits="userSpaceOnUse">
<stop stop-color="white" style="stop-color:white;stop-opacity:1;"/>
<stop offset="0.300481" stop-color="#E1D0FF" style="stop-color:#E1D0FF;stop-color:color(display-p3 0.8804 0.8170 1.0000);stop-opacity:1;"/>
<stop offset="0.600962" stop-color="#BD9AFF" style="stop-color:#BD9AFF;stop-color:color(display-p3 0.7426 0.6040 1.0000);stop-opacity:1;"/>
<stop offset="0.961538" stop-color="#8147ED" style="stop-color:#8147ED;stop-color:color(display-p3 0.5059 0.2784 0.9294);stop-opacity:1;"/>
</linearGradient>
<linearGradient id="paint3_linear_1967_6710" x1="12.634" y1="-19.8739" x2="82.4008" y2="53.2082" gradientUnits="userSpaceOnUse">
<stop stop-color="white" style="stop-color:white;stop-opacity:1;"/>
<stop offset="0.300481" stop-color="#E1D0FF" style="stop-color:#E1D0FF;stop-color:color(display-p3 0.8804 0.8170 1.0000);stop-opacity:1;"/>
<stop offset="0.600962" stop-color="#BD9AFF" style="stop-color:#BD9AFF;stop-color:color(display-p3 0.7426 0.6040 1.0000);stop-opacity:1;"/>
<stop offset="0.961538" stop-color="#8147ED" style="stop-color:#8147ED;stop-color:color(display-p3 0.5059 0.2784 0.9294);stop-opacity:1;"/>
</linearGradient>
<linearGradient id="paint4_linear_1967_6710" x1="36.2641" y1="5.98239" x2="74.8266" y2="67.2803" gradientUnits="userSpaceOnUse">
<stop stop-color="white" style="stop-color:white;stop-opacity:1;"/>
<stop offset="0.774038" stop-color="#F8E0C6" style="stop-color:#F8E0C6;stop-color:color(display-p3 0.9725 0.8784 0.7765);stop-opacity:1;"/>
<stop offset="1" stop-color="#E9D1B9" style="stop-color:#E9D1B9;stop-color:color(display-p3 0.9137 0.8196 0.7255);stop-opacity:1;"/>
</linearGradient>
<linearGradient id="paint5_linear_1967_6710" x1="26.905" y1="50.6223" x2="26.905" y2="62.7547" gradientUnits="userSpaceOnUse">
<stop stop-color="#FFD6D6" style="stop-color:#FFD6D6;stop-color:color(display-p3 1.0000 0.8401 0.8401);stop-opacity:1;"/>
<stop offset="1" stop-color="#F3C8B4" style="stop-color:#F3C8B4;stop-color:color(display-p3 0.9516 0.7852 0.7076);stop-opacity:1;"/>
</linearGradient>
<linearGradient id="paint6_linear_1967_6710" x1="68.882" y1="50.7083" x2="68.882" y2="62.8406" gradientUnits="userSpaceOnUse">
<stop stop-color="#FFD6D6" style="stop-color:#FFD6D6;stop-color:color(display-p3 1.0000 0.8401 0.8401);stop-opacity:1;"/>
<stop offset="1" stop-color="#F3C8B4" style="stop-color:#F3C8B4;stop-color:color(display-p3 0.9516 0.7852 0.7076);stop-opacity:1;"/>
</linearGradient>
<linearGradient id="paint7_linear_1967_6710" x1="48.0105" y1="48.2659" x2="48.1139" y2="52.5393" gradientUnits="userSpaceOnUse">
<stop stop-color="#FFD6D6" style="stop-color:#FFD6D6;stop-color:color(display-p3 1.0000 0.8401 0.8401);stop-opacity:1;"/>
<stop offset="1" stop-color="#F3C8B4" style="stop-color:#F3C8B4;stop-color:color(display-p3 0.9516 0.7852 0.7076);stop-opacity:1;"/>
</linearGradient>
</defs>
</svg>
